# Blender v2.78 (sub 0) OBJ File: ''
# www.blender.org
mtllib flower1_1.mtl
o flower1
v 0.089014 0.881104 -0.036557
v 0.089014 1.041479 0.007974
v 0.175373 1.001461 0.152098
v 0.175373 0.841085 0.107567
v -0.083702 0.881104 -0.036557
v -0.083702 1.041479 0.007974
v -0.170060 0.841085 0.107567
v -0.170060 1.001461 0.152098
v -0.083702 0.801067 0.251691
v -0.083702 0.961442 0.296222
v 0.089014 0.801067 0.251691
v 0.089014 0.961442 0.296222
v 0.023472 -0.054350 -0.017306
v 0.044289 -0.060661 0.018192
v 0.002656 -0.080411 0.014681
v 0.002656 1.081648 0.174363
v -0.018160 -0.054350 -0.017306
v -0.038976 -0.060661 0.018192
v -0.018160 -0.066972 0.053690
v 0.023472 -0.066972 0.053690
v 0.058379 0.786769 0.092485
v 0.030518 0.799680 0.045987
v -0.025205 0.799680 0.045987
v -0.053067 0.786769 0.092485
v -0.025205 0.773857 0.138984
v 0.030518 0.773857 0.138984
v 0.044842 0.578544 0.034668
v 0.023749 0.588319 -0.000533
v -0.018436 0.588319 -0.000533
v -0.039529 0.578544 0.034668
v -0.018436 0.568770 0.069870
v 0.023749 0.568770 0.069870
v 0.616243 1.066415 0.211745
v 0.614186 1.077642 0.212895
v 0.556083 1.047123 0.406975
v 0.558139 1.035896 0.405825
v 0.148462 0.888154 -0.018515
v 0.140503 0.904375 -0.018347
v 0.469297 1.069923 0.026702
v 0.480966 1.046140 0.026456
v 0.017588 0.797077 0.157236
v 0.014834 0.802690 0.157294
v 0.046499 0.819322 0.051526
v 0.049252 0.813709 0.051468
v 0.346778 0.975657 0.474678
v 0.335108 0.999440 0.474924
v 0.048987 0.856305 0.287340
v 0.056945 0.840085 0.287172
v 0.421802 1.225016 -0.225323
v 0.419406 1.235245 -0.220716
v 0.538071 1.190562 -0.059792
v 0.540467 1.180333 -0.064399
v -0.010889 0.923945 -0.064852
v -0.018565 0.937344 -0.055471
v 0.188708 1.187252 -0.234703
v 0.199964 1.167605 -0.248458
v 0.059772 0.800931 0.125374
v 0.057116 0.805567 0.128620
v -0.007553 0.829918 0.040921
v -0.004897 0.825282 0.037675
v 0.474017 1.064411 0.123190
v 0.462762 1.084058 0.136945
v 0.168339 0.866966 0.197993
v 0.176015 0.853566 0.188613
v -0.232864 1.292495 -0.304139
v -0.231700 1.301989 -0.297806
v -0.033710 1.312187 -0.349481
v -0.034873 1.302693 -0.355814
v -0.174725 0.895850 0.073894
v -0.171751 0.907302 0.087549
v -0.315473 1.186519 -0.109739
v -0.319834 1.169727 -0.129761
v 0.049805 0.820654 0.058307
v 0.050835 0.824617 0.063032
v -0.057064 0.819059 0.091193
v -0.058093 0.815097 0.086468
v 0.137419 1.193279 -0.249103
v 0.141780 1.210071 -0.229080
v 0.140095 0.923364 0.006158
v 0.137121 0.911912 -0.007497
v -0.585334 1.092515 0.264289
v -0.582314 1.103104 0.267505
v -0.574202 1.160467 0.070990
v -0.577222 1.149878 0.067774
v -0.100983 0.829841 0.269024
v -0.091458 0.844470 0.273687
v -0.400461 1.014135 0.388889
v -0.414427 0.992685 0.382052
v -0.025322 0.824490 0.044172
v -0.022026 0.829552 0.045786
v -0.026447 0.798290 0.152880
v -0.029743 0.793229 0.151267
v -0.395692 1.125163 -0.071794
v -0.381726 1.146613 -0.064956
v -0.078681 0.934820 -0.035836
v -0.088205 0.920191 -0.040499
v 0.036506 1.036420 0.728825
v 0.036028 1.047811 0.727550
v -0.167789 1.037249 0.709609
v -0.167311 1.025858 0.710885
v 0.149515 0.869271 0.216082
v 0.149271 0.885916 0.209056
v 0.187485 1.033715 0.547044
v 0.187843 1.009310 0.557345
v -0.056866 0.801514 0.120547
v -0.056951 0.807273 0.118116
v 0.054123 0.813029 0.127893
v 0.054207 0.807270 0.130324
v -0.282865 0.984917 0.515912
v -0.283223 1.009323 0.505611
v -0.171751 0.869280 0.180799
v -0.171507 0.852636 0.187824
vt 0.1341 0.9092
vt 0.1341 0.9006
vt 0.1509 0.8727
vt 0.1509 0.8813
vt 0.1007 0.9092
vt 0.1007 0.9006
vt 0.0839 0.8813
vt 0.0839 0.8727
vt 0.1007 0.8534
vt 0.1007 0.8447
vt 0.1341 0.8534
vt 0.1341 0.8447
vt 0.1214 0.9055
vt 0.1255 0.8986
vt 0.1174 0.8993
vt 0.6246 0.1424
vt 0.6581 0.1467
vt 0.6414 0.1746
vt 0.1134 0.9055
vt 0.6079 0.1746
vt 0.1093 0.8986
vt 0.5912 0.1467
vt 0.1134 0.8917
vt 0.6079 0.1188
vt 0.1214 0.8917
vt 0.6414 0.1188
vt 0.1282 0.8842
vt 0.1228 0.8932
vt 0.1120 0.8932
vt 0.1066 0.8842
vt 0.1120 0.8752
vt 0.1228 0.8752
vt 0.1256 0.8954
vt 0.1215 0.9022
vt 0.1133 0.9022
vt 0.1092 0.8954
vt 0.1133 0.8886
vt 0.1215 0.8886
vt 0.7439 0.8678
vt 0.7435 0.8676
vt 0.7322 0.8299
vt 0.7326 0.8302
vt 0.6532 0.9124
vt 0.6517 0.9124
vt 0.7154 0.9037
vt 0.7177 0.9037
vt 0.6279 0.8784
vt 0.6273 0.8783
vt 0.6335 0.8988
vt 0.6340 0.8989
vt 0.6917 0.8168
vt 0.6894 0.8168
vt 0.6339 0.8531
vt 0.6355 0.8532
vt 0.7062 0.9525
vt 0.7057 0.9516
vt 0.7287 0.9204
vt 0.7292 0.9213
vt 0.6223 0.9214
vt 0.6208 0.9196
vt 0.6610 0.9543
vt 0.6632 0.9570
vt 0.6360 0.8845
vt 0.6355 0.8839
vt 0.6230 0.9009
vt 0.6235 0.9015
vt 0.7163 0.8850
vt 0.7141 0.8823
vt 0.6571 0.8705
vt 0.6586 0.8723
vt 0.5793 0.9678
vt 0.5795 0.9665
vt 0.6179 0.9766
vt 0.6177 0.9778
vt 0.5906 0.8945
vt 0.5912 0.8919
vt 0.5633 0.9301
vt 0.5625 0.9340
vt 0.6341 0.8975
vt 0.6343 0.8966
vt 0.6134 0.8912
vt 0.6132 0.8921
vt 0.6511 0.9571
vt 0.6519 0.9532
vt 0.6516 0.9076
vt 0.6510 0.9103
vt 0.5110 0.8576
vt 0.5116 0.8570
vt 0.5132 0.8951
vt 0.5126 0.8957
vt 0.6049 0.8567
vt 0.6067 0.8558
vt 0.5468 0.8335
vt 0.5441 0.8348
vt 0.6195 0.9003
vt 0.6202 0.9000
vt 0.6193 0.8792
vt 0.6187 0.8795
vt 0.5478 0.9227
vt 0.5505 0.9214
vt 0.6092 0.9158
vt 0.6074 0.9167
vt 0.6315 0.7676
vt 0.6314 0.7678
vt 0.5919 0.7713
vt 0.5920 0.7710
vt 0.6534 0.8669
vt 0.6534 0.8683
vt 0.6608 0.8028
vt 0.6609 0.8008
vt 0.6134 0.8855
vt 0.6134 0.8859
vt 0.6349 0.8840
vt 0.6350 0.8836
vt 0.5696 0.8088
vt 0.5696 0.8108
vt 0.5912 0.8738
vt 0.5912 0.8724
vn 0.8660 0.1338 -0.4818
vn 0.0000 0.2675 -0.9635
vn -0.8660 0.1338 -0.4818
vn -0.8660 -0.1338 0.4818
vn 0.0000 -0.2675 0.9635
vn 0.8660 -0.1338 0.4818
vn 0.4210 -0.8178 -0.3923
vn 0.4211 0.9070 -0.0004
vn 0.0000 -0.7753 -0.6316
vn 0.0000 0.9721 -0.2347
vn -0.4211 -0.8178 -0.3923
vn -0.4211 0.9070 -0.0004
vn -0.4211 -0.9029 0.0864
vn -0.4211 0.7770 0.4680
vn 0.0000 -0.9455 0.3257
vn 0.0000 0.7119 0.7023
vn 0.4210 -0.9029 0.0864
vn 0.4211 0.7770 0.4680
vn 0.4211 -0.7770 -0.4680
vn 0.0000 -0.7119 -0.7023
vn -0.4211 -0.7770 -0.4680
vn -0.4211 -0.9070 0.0004
vn 0.0000 -0.9721 0.2347
vn 0.4211 -0.9070 0.0004
vn 0.8648 0.0814 -0.4956
vn 0.0000 0.2150 -0.9766
vn -0.8647 0.0814 -0.4956
vn -0.8648 -0.1858 0.4666
vn 0.0000 -0.3194 0.9476
vn 0.8648 -0.1858 0.4666
vn 0.8614 0.0126 -0.5078
vn 0.0000 0.0261 -0.9997
vn -0.8614 0.0126 -0.5078
vn -0.8615 -0.0136 0.5076
vn 0.0000 -0.0254 0.9997
vn 0.8615 -0.0136 0.5076
vn 0.9420 0.1414 0.3043
vn 0.1049 0.0617 -0.9926
vn -0.8518 -0.4146 -0.3202
vn -0.4505 -0.2300 0.8626
vn -0.4503 0.8929 0.0056
vn 0.4306 -0.9025 -0.0130
vn 0.2500 -0.9652 -0.0769
vn 0.7459 0.3158 -0.5864
vn -0.1804 0.9785 0.0998
vn 0.2842 0.0733 0.9560
vn 0.6283 -0.7751 0.0662
vn -0.8266 -0.4096 0.3859
vn -0.7081 0.6987 -0.1021
vn -0.4517 -0.2126 -0.8665
vn 0.7880 0.3967 -0.4709
vn -0.7083 0.0849 -0.7008
vn -0.6957 -0.6344 0.3369
vn 0.4260 -0.3423 0.8375
vn -0.4329 0.7342 0.5231
vn 0.4167 -0.7489 -0.5153
vn 0.2678 -0.8591 -0.4360
vn -0.0475 0.5072 -0.8605
vn -0.2098 0.8912 0.4022
vn 0.8955 0.1521 0.4183
vn 0.5765 -0.5717 -0.5838
vn -0.1392 -0.6202 0.7720
vn -0.6394 0.4761 0.6037
vn -0.9049 -0.3319 -0.2665
vn -0.2362 0.5591 -0.7947
vn -0.9062 -0.2053 0.3696
vn 0.1975 -0.7719 0.6043
vn 0.9864 -0.1078 -0.1244
vn 0.1669 0.6248 0.7627
vn -0.1623 -0.6427 -0.7487
vn -0.1190 -0.7829 -0.6106
vn -0.9093 0.3741 -0.1825
vn 0.1017 0.8269 0.5530
vn 0.6641 0.4551 -0.5931
vn -0.2064 -0.4346 -0.8766
vn 0.7870 -0.5463 0.2867
vn 0.2228 0.3275 0.9182
vn -0.4907 -0.6121 0.6202
vn -0.9639 0.2636 0.0372
vn 0.1334 -0.3788 0.9158
vn 0.8488 -0.5159 -0.1156
vn 0.2110 0.1695 -0.9627
vn 0.5370 0.8036 0.2567
vn -0.5173 -0.8156 -0.2594
vn -0.3354 -0.9005 -0.2767
vn -0.5500 0.0297 0.8347
vn 0.2644 0.9228 0.2803
vn -0.4855 0.4855 -0.7270
vn -0.7119 -0.6657 -0.2237
vn 0.6631 -0.2020 -0.7208
vn 0.7884 0.5810 0.2022
vn 0.6107 -0.5722 0.5474
vn -0.0927 0.1070 0.9899
vn 0.9946 -0.0278 -0.1003
vn 0.1007 -0.3857 -0.9171
vn -0.9537 -0.1287 -0.2718
vn -0.0123 0.9167 -0.3995
vn 0.0147 -0.9256 0.3782
vn 0.0345 -0.9820 0.1857
vn 0.7523 0.2186 0.6215
vn -0.0416 0.9928 -0.1124
vn -0.8674 0.1346 0.4790
vn -0.0105 -0.8047 0.5935
vn -0.5821 -0.3234 -0.7461
vn 0.0222 0.7308 -0.6823
vn 0.7332 -0.2553 -0.6303
usemtl lowpoly
s off
f 1/1/1 2/2/1 3/3/1 4/4/1
f 5/5/2 6/6/2 2/2/2 1/1/2
f 7/7/3 8/8/3 6/6/3 5/5/3
f 9/9/4 10/10/4 8/8/4 7/7/4
f 11/11/5 12/12/5 10/10/5 9/9/5
f 4/4/6 3/3/6 12/12/6 11/11/6
f 13/13/7 14/14/7 15/15/7
f 16/16/8 3/17/8 2/18/8
f 17/19/9 13/13/9 15/15/9
f 16/16/10 2/18/10 6/20/10
f 18/21/11 17/19/11 15/15/11
f 16/16/12 6/20/12 8/22/12
f 19/23/13 18/21/13 15/15/13
f 16/16/14 8/22/14 10/24/14
f 20/25/15 19/23/15 15/15/15
f 16/16/16 10/24/16 12/26/16
f 14/14/17 20/25/17 15/15/17
f 16/16/18 12/26/18 3/17/18
f 4/4/19 21/27/19 22/28/19 1/1/19
f 1/1/20 22/28/20 23/29/20 5/5/20
f 5/5/21 23/29/21 24/30/21 7/7/21
f 7/7/22 24/30/22 25/31/22 9/9/22
f 9/9/23 25/31/23 26/32/23 11/11/23
f 11/11/24 26/32/24 21/27/24 4/4/24
f 21/27/25 27/33/25 28/34/25 22/28/25
f 22/28/26 28/34/26 29/35/26 23/29/26
f 23/29/27 29/35/27 30/36/27 24/30/27
f 24/30/28 30/36/28 31/37/28 25/31/28
f 25/31/29 31/37/29 32/38/29 26/32/29
f 26/32/30 32/38/30 27/33/30 21/27/30
f 27/33/31 14/14/31 13/13/31 28/34/31
f 28/34/32 13/13/32 17/19/32 29/35/32
f 29/35/33 17/19/33 18/21/33 30/36/33
f 30/36/34 18/21/34 19/23/34 31/37/34
f 31/37/35 19/23/35 20/25/35 32/38/35
f 32/38/36 20/25/36 14/14/36 27/33/36
f 33/39/37 34/40/37 35/41/37 36/42/37
f 37/43/38 38/44/38 39/45/38 40/46/38
f 41/47/39 42/48/39 43/49/39 44/50/39
f 45/51/40 46/52/40 47/53/40 48/54/40
f 39/45/41 38/44/41 47/53/41 46/52/41
f 37/43/42 40/46/42 45/51/42 48/54/42
f 40/46/43 33/39/43 36/42/43 45/51/43
f 39/45/44 34/40/44 33/39/44 40/46/44
f 46/52/45 35/41/45 34/40/45 39/45/45
f 45/51/46 36/42/46 35/41/46 46/52/46
f 48/54/47 41/47/47 44/50/47 37/43/47
f 47/53/48 42/48/48 41/47/48 48/54/48
f 38/44/49 43/49/49 42/48/49 47/53/49
f 37/43/50 44/50/50 43/49/50 38/44/50
f 49/55/51 50/56/51 51/57/51 52/58/51
f 53/59/52 54/60/52 55/61/52 56/62/52
f 57/63/53 58/64/53 59/65/53 60/66/53
f 61/67/54 62/68/54 63/69/54 64/70/54
f 55/61/55 54/60/55 63/69/55 62/68/55
f 53/59/56 56/62/56 61/67/56 64/70/56
f 56/62/57 49/55/57 52/58/57 61/67/57
f 55/61/58 50/56/58 49/55/58 56/62/58
f 62/68/59 51/57/59 50/56/59 55/61/59
f 61/67/60 52/58/60 51/57/60 62/68/60
f 64/70/61 57/63/61 60/66/61 53/59/61
f 63/69/62 58/64/62 57/63/62 64/70/62
f 54/60/63 59/65/63 58/64/63 63/69/63
f 53/59/64 60/66/64 59/65/64 54/60/64
f 65/71/65 66/72/65 67/73/65 68/74/65
f 69/75/66 70/76/66 71/77/66 72/78/66
f 73/79/67 74/80/67 75/81/67 76/82/67
f 77/83/68 78/84/68 79/85/68 80/86/68
f 71/77/69 70/76/69 79/85/69 78/84/69
f 69/75/70 72/78/70 77/83/70 80/86/70
f 72/78/71 65/71/71 68/74/71 77/83/71
f 71/77/72 66/72/72 65/71/72 72/78/72
f 78/84/73 67/73/73 66/72/73 71/77/73
f 77/83/74 68/74/74 67/73/74 78/84/74
f 80/86/75 73/79/75 76/82/75 69/75/75
f 79/85/76 74/80/76 73/79/76 80/86/76
f 70/76/77 75/81/77 74/80/77 79/85/77
f 69/75/78 76/82/78 75/81/78 70/76/78
f 81/87/79 82/88/79 83/89/79 84/90/79
f 85/91/80 86/92/80 87/93/80 88/94/80
f 89/95/81 90/96/81 91/97/81 92/98/81
f 93/99/82 94/100/82 95/101/82 96/102/82
f 87/93/83 86/92/83 95/101/83 94/100/83
f 85/91/84 88/94/84 93/99/84 96/102/84
f 88/94/85 81/87/85 84/90/85 93/99/85
f 87/93/86 82/88/86 81/87/86 88/94/86
f 94/100/87 83/89/87 82/88/87 87/93/87
f 93/99/88 84/90/88 83/89/88 94/100/88
f 96/102/89 89/95/89 92/98/89 85/91/89
f 95/101/90 90/96/90 89/95/90 96/102/90
f 86/92/91 91/97/91 90/96/91 95/101/91
f 85/91/92 92/98/92 91/97/92 86/92/92
f 97/103/93 98/104/93 99/105/93 100/106/93
f 101/107/94 102/108/94 103/109/94 104/110/94
f 105/111/95 106/112/95 107/113/95 108/114/95
f 109/115/96 110/116/96 111/117/96 112/118/96
f 103/109/97 102/108/97 111/117/97 110/116/97
f 101/107/98 104/110/98 109/115/98 112/118/98
f 104/110/99 97/103/99 100/106/99 109/115/99
f 103/109/100 98/104/100 97/103/100 104/110/100
f 110/116/101 99/105/101 98/104/101 103/109/101
f 109/115/102 100/106/102 99/105/102 110/116/102
f 112/118/103 105/111/103 108/114/103 101/107/103
f 111/117/104 106/112/104 105/111/104 112/118/104
f 102/108/105 107/113/105 106/112/105 111/117/105
f 101/107/106 108/114/106 107/113/106 102/108/106
